<?xml version="1.0" encoding="UTF-8"?>
<svg width="120" height="120" viewBox="0 0 120 120" xmlns="http://www.w3.org/2000/svg">
  <!-- 배경 원 -->
  <circle cx="60" cy="60" r="55" fill="white" stroke="url(#gradient)" stroke-width="4"/>
  
  <!-- 성경 책 -->
  <path d="M40,30 L80,30 L80,90 L40,90 Z" fill="none" stroke="url(#gradient)" stroke-width="3"/>
  <path d="M40,45 L80,45" stroke="url(#gradient)" stroke-width="2"/>
  <path d="M40,60 L80,60" stroke="url(#gradient)" stroke-width="2"/>
  <path d="M40,75 L80,75" stroke="url(#gradient)" stroke-width="2"/>
  
  <!-- MBTI 심볼 -->
  <path d="M50,40 C50,35 55,30 60,30 C65,30 70,35 70,40 C70,45 65,50 60,50 C55,50 50,45 50,40" 
        fill="none" stroke="url(#gradient)" stroke-width="2"/>
  <path d="M50,70 C50,65 55,60 60,60 C65,60 70,65 70,70 C70,75 65,80 60,80 C55,80 50,75 50,70" 
        fill="none" stroke="url(#gradient)" stroke-width="2"/>
  
  <!-- 그라데이션 정의 -->
  <defs>
    <linearGradient id="gradient" x1="0%" y1="0%" x2="100%" y2="100%">
      <stop offset="0%" style="stop-color:#4e54c8"/>
      <stop offset="100%" style="stop-color:#8f94fb"/>
    </linearGradient>
  </defs>
</svg> 
